<?xml version="1.0" encoding="utf-8"?>
<!-- Generator: Adobe Illustrator 21.0.2, SVG Export Plug-In . SVG Version: 6.00 Build 0)  -->
<svg version="1.1" id="Livello_1" xmlns="http://www.w3.org/2000/svg" xmlns:xlink="http://www.w3.org/1999/xlink" x="0px" y="0px"
	 width="859.5px" height="1100.9px" viewBox="0 0 859.5 1100.9" style="enable-background:new 0 0 859.5 1100.9;"
	 xml:space="preserve">
<style type="text/css">
	.st0{opacity:0.5;fill:#D1E7FF;enable-background:new    ;}
	.st1{fill:#00264D;}
	.st2{font-family:'TitilliumWeb-Regular';}
	.st3{font-size:17px;}
	.st4{fill:none;stroke:#9ED0FB;stroke-width:2;}
	.st5{fill:#008AF3;}
	.st6{fill:#003366;}
	.st7{font-size:18px;}
	.st8{fill:#5A6772;}
	.st9{font-family:'TitilliumWeb-Bold';}
	.st10{font-size:12px;}
	.st11{font-size:22px;}
	.st12{opacity:0.5;fill:none;stroke:#5A6772;stroke-width:0.5;stroke-linecap:square;enable-background:new    ;}
	.st13{opacity:0.5;fill:#EDEFF2;enable-background:new    ;}
	.st14{fill:#DDDFE6;}
	.st15{font-size:16px;}
	.st16{fill:#0066CC;}
	.st17{fill:#FFFFFF;}
	.st18{fill:none;stroke:#428FDB;stroke-width:2;}
</style>
<title>Group 53</title>
<desc>Created with Sketch.</desc>
<g id="_x2D_--New-Docs-layouts">
	<g id="docs_article_nav_2-cap_03" transform="translate(-520.000000, -5383.000000)">
		<g id="Group-60" transform="translate(512.000000, 295.000000)">
			<g id="Group-53" transform="translate(8.000000, 5089.000000)">
				<g id="Group-45" transform="translate(269.000000, 837.110822)">
					<g transform="translate(48.000000, 16.000000) rotate(-360.000000) translate(-48.000000, -16.000000) ">
						<path id="Rectangle-11-Copy" class="st0" d="M20.4,15.9h88c2.2,0,4,1.8,4,4v24c0,2.2-1.8,4-4,4h-88c-2.2,0-4-1.8-4-4v-24
							C16.4,17.7,18.2,15.9,20.4,15.9z"/>
						<text transform="matrix(1 0 0 1 26.8882 38.8821)" class="st1 st2 st3">Open data</text>
					</g>
				</g>
				<g id="Group-45_1_" transform="translate(373.000000, 837.110822)">
					<g transform="translate(87.000000, 16.000000) rotate(-360.000000) translate(-87.000000, -16.000000) ">
						<path id="Rectangle-11-Copy_1_" class="st0" d="M20.4,15.9h166c2.2,0,4,1.8,4,4v24c0,2.2-1.8,4-4,4h-166c-2.2,0-4-1.8-4-4v-24
							C16.4,17.7,18.2,15.9,20.4,15.9z"/>
						<text transform="matrix(1 0 0 1 27.3882 38.8821)" class="st1 st2 st3">Vocabolari controllati</text>
					</g>
				</g>
				<g id="Group-17" transform="translate(223.000000, 901.110822)">
					
						<g id="flowchart_x2F_arrows-_x2F_-Basic-_x2F_-_x23_13" transform="translate(22.500000, 90.110822) scale(-1, -1) rotate(90.000000) translate(-22.500000, -90.110822) translate(-36.000000, 68.110822)">
						
							<g id="_x23_13" transform="translate(58.500000, 21.500000) scale(-1, 1) translate(-58.500000, -21.500000) translate(0.000000, 0.000000)">
							<path id="Line" class="st4" d="M18.4,18.9h104c3.3,0,6,2.7,6,6v28"/>
							<circle id="Oval-3" class="st5" cx="18.4" cy="18.9" r="2.5"/>
							<path id="Shape" class="st5" d="M131.9,53.2c0.3-0.5,0.1-0.9-0.5-0.9h-6c-0.5,0-0.8,0.4-0.5,0.9l2.9,4.8c0.3,0.5,0.8,0.5,1,0
								L131.9,53.2z"/>
						</g>
					</g>
					
						<g id="flowchart-_x2F_-arrows-_x2F_-Basic-_x2F_-_x23_13-Copy-5" transform="translate(22.000000, 60.110822) scale(-1, -1) rotate(90.000000) translate(-22.000000, -60.110822) translate(13.000000, 40.110822)">
						
							<g id="_x23_13_1_" transform="translate(9.343077, 20.000000) scale(-1, 1) translate(-9.343077, -20.000000) translate(0.843077, 0.000000)">
							<path id="Line_1_" class="st4" d="M16.4,17.1l6.1-0.1c3.3-0.1,6,2.6,6,5.9v27"/>
							<path id="Shape_1_" class="st5" d="M32,50.3c0.3-0.5,0.1-0.9-0.5-0.9h-6c-0.5,0-0.8,0.4-0.5,0.9l2.9,4.8c0.3,0.5,0.8,0.5,1,0
								L32,50.3z"/>
						</g>
					</g>
					
						<g id="flowchart-_x2F_-arrows-_x2F_-Basic-_x2F_-_x23_13-Copy-6" transform="translate(22.000000, 101.110822) scale(-1, -1) rotate(90.000000) translate(-22.000000, -101.110822) translate(13.000000, 81.110822)">
						
							<g id="_x23_13_2_" transform="translate(9.343077, 20.000000) scale(-1, 1) translate(-9.343077, -20.000000) translate(0.843077, 0.000000)">
							<path id="Line_2_" class="st4" d="M16.4,17.1l6.1-0.1c3.3-0.1,6,2.6,6,5.9v27"/>
							<path id="Shape_2_" class="st5" d="M32,50.3c0.3-0.5,0.1-0.9-0.5-0.9h-6c-0.5,0-0.8,0.4-0.5,0.9l2.9,4.8c0.3,0.5,0.8,0.5,1,0
								L32,50.3z"/>
						</g>
					</g>
					<text transform="matrix(1 0 0 1 17.1382 35.9929)" class="st6 st2 st7">INFRASTRUTTURE FISICHE</text>
					<g id="Group-45_2_" transform="translate(46.000000, 48.110822)">
						
							<g transform="translate(57.000000, 16.000000) rotate(-360.000000) translate(-57.000000, -16.000000) translate(0.000000, 0.000000)">
							<path id="Rectangle-11-Copy_2_" class="st0" d="M20.4,15.9h106c2.2,0,4,1.8,4,4v24c0,2.2-1.8,4-4,4h-106c-2.2,0-4-1.8-4-4
								v-24C16.4,17.7,18.2,15.9,20.4,15.9z"/>
							<text transform="matrix(1 0 0 1 30.8882 38.8821)" class="st1 st2 st3">Data center</text>
						</g>
					</g>
					<g id="Group-45_3_" transform="translate(46.000000, 88.110822)">
						
							<g transform="translate(37.000000, 16.000000) rotate(-360.000000) translate(-37.000000, -16.000000) translate(0.000000, 0.000000)">
							<path id="Rectangle-11-Copy_3_" class="st0" d="M20.4,15.9h66c2.2,0,4,1.8,4,4v24c0,2.2-1.8,4-4,4h-66c-2.2,0-4-1.8-4-4v-24
								C16.4,17.7,18.2,15.9,20.4,15.9z"/>
							<text transform="matrix(1 0 0 1 32.3882 38.8821)" class="st1 st2 st3">Cloud</text>
						</g>
					</g>
					<g id="Group-45_4_" transform="translate(46.000000, 128.110822)">
						
							<g transform="translate(57.000000, 16.000000) rotate(-360.000000) translate(-57.000000, -16.000000) translate(0.000000, 0.000000)">
							<path id="Rectangle-11-Copy_4_" class="st0" d="M20.4,15.9h106c2.2,0,4,1.8,4,4v24c0,2.2-1.8,4-4,4h-106c-2.2,0-4-1.8-4-4
								v-24C16.4,17.7,18.2,15.9,20.4,15.9z"/>
							<text transform="matrix(1 0 0 1 29.3882 38.8821)" class="st1 st2 st3">Connettività</text>
						</g>
					</g>
				</g>
				<text transform="matrix(1 0 0 1 240.1382 158.2338)" class="st8 st9 st10">ECOSISTEMI</text>
				<text transform="matrix(1 0 0 1 285.3882 672.9929)" class="st8 st9 st10">PIATTAFORME ABILITANTI</text>
				<text transform="matrix(1 0 0 1 285.3882 799.9675)" class="st8 st9 st10">DATI PA</text>
				<g id="Group-48" transform="translate(223.000000, 199.351675)">
					<g id="Group-45_5_" transform="translate(0.750000, 0.000000)">
						<g transform="translate(113.000000, 16.000000) rotate(-360.000000) translate(-113.000000, -16.000000) ">
							<path id="Rectangle-11-Copy_5_" class="st0" d="M20.4,15.9h218c2.2,0,4,1.8,4,4v24c0,2.2-1.8,4-4,4h-218c-2.2,0-4-1.8-4-4
								v-24C16.4,17.7,18.2,15.9,20.4,15.9z"/>
							<text transform="matrix(1 0 0 1 25.8882 38.8821)" class="st1 st2 st3">Istruzione superiore e ricerca</text>
						</g>
					</g>
					<g id="Group-45_6_" transform="translate(234.500000, 0.000000)">
						<g transform="translate(58.500000, 16.000000) rotate(-360.000000) translate(-58.500000, -16.000000) ">
							<path id="Rectangle-11-Copy_6_" class="st0" d="M20.4,15.9h109c2.2,0,4,1.8,4,4v24c0,2.2-1.8,4-4,4h-109c-2.2,0-4-1.8-4-4
								v-24C16.4,17.7,18.2,15.9,20.4,15.9z"/>
							<text transform="matrix(1 0 0 1 22.3882 38.8821)" class="st1 st2 st3">Comunicazioni</text>
						</g>
					</g>
				</g>
				<g id="Group-45_7_" transform="translate(223.000000, 399.351675)">
					<g transform="translate(115.000000, 16.000000) rotate(-360.000000) translate(-115.000000, -16.000000) ">
						<path id="Rectangle-11-Copy_7_" class="st0" d="M20.4,15.9h222c2.2,0,4,1.8,4,4v24c0,2.2-1.8,4-4,4h-222c-2.2,0-4-1.8-4-4v-24
							C16.4,17.7,18.2,15.9,20.4,15.9z"/>
						<text transform="matrix(1 0 0 1 26.8882 38.8821)" class="st1 st2 st3">L&apos;Italia in Europa e nel mondo</text>
					</g>
				</g>
				<g id="Group-45_8_" transform="translate(223.000000, 319.351675)">
					<g transform="translate(136.000000, 16.000000) rotate(-360.000000) translate(-136.000000, -16.000000) ">
						<path id="Rectangle-11-Copy_8_" class="st0" d="M20.4,15.9h264c2.2,0,4,1.8,4,4v24c0,2.2-1.8,4-4,4h-264c-2.2,0-4-1.8-4-4v-24
							C16.4,17.7,18.2,15.9,20.4,15.9z"/>
						<text transform="matrix(1 0 0 1 24.8882 38.8821)" class="st1 st2 st3">Difesa, sicurezza a soccorso legalità</text>
					</g>
				</g>
				<g id="Group-45_9_" transform="translate(223.000000, 279.351675)">
					<g transform="translate(136.000000, 16.000000) rotate(-360.000000) translate(-136.000000, -16.000000) ">
						<path id="Rectangle-11-Copy_9_" class="st0" d="M20.4,15.9h264c2.2,0,4,1.8,4,4v24c0,2.2-1.8,4-4,4h-264c-2.2,0-4-1.8-4-4v-24
							C16.4,17.7,18.2,15.9,20.4,15.9z"/>
						<text transform="matrix(1 0 0 1 27.3882 38.8821)" class="st1 st2 st3">Infrastrutture e logistica – Mobilità</text>
					</g>
				</g>
				
					<g id="flowchart_x2F_arrows-_x2F_-Basic-_x2F_-_x23_13_1_" transform="translate(245.000000, 701.509054) scale(-1, -1) rotate(90.000000) translate(-245.000000, -701.509054) translate(161.601768, 680.009054)">
					
						<g id="_x23_13_3_" transform="translate(83.500000, 21.011364) scale(-1, 1) translate(-83.500000, -21.011364) translate(0.000000, 0.000000)">
						<path id="Line_3_" class="st4" d="M18.4,18.9h154c3.3,0,6,2.7,6,6v27"/>
						<circle id="Oval-3_1_" class="st5" cx="18.4" cy="18.9" r="2.5"/>
						<path id="Shape_3_" class="st5" d="M181.9,52.3c0.3-0.5,0.1-0.9-0.5-0.9h-6c-0.5,0-0.8,0.4-0.5,0.9l2.9,4.8
							c0.3,0.5,0.8,0.5,1,0L181.9,52.3z"/>
					</g>
				</g>
				
					<g id="flowchart-_x2F_-arrows-_x2F_-Basic-_x2F_-_x23_13-Copy-3" transform="translate(245.000000, 649.110822) scale(-1, -1) rotate(90.000000) translate(-245.000000, -649.110822) translate(236.000000, 629.110822)">
					
						<g id="_x23_13_4_" transform="translate(9.343077, 20.000000) scale(-1, 1) translate(-9.343077, -20.000000) translate(0.843077, 0.000000)">
						<path id="Line_4_" class="st4" d="M16.4,17.1l6.1-0.1c3.3-0.1,6,2.6,6,5.9v27"/>
						<path id="Shape_4_" class="st5" d="M32,50.3c0.3-0.5,0.1-0.9-0.5-0.9h-6c-0.5,0-0.8,0.4-0.5,0.9l2.9,4.8c0.3,0.5,0.8,0.5,1,0
							L32,50.3z"/>
					</g>
				</g>
				<text transform="matrix(1 0 0 1 16.3882 89.2338)" class="st6 st9 st11">SICUREZZA</text>
				<text transform="matrix(1 0 0 1 655.8882 89.2338)" class="st6 st9 st11">DATA&amp;ANALYTICS</text>
				<text transform="matrix(1 0 0 1 825.8359 89.2338)" class="st6 st9 st11"> </text>
				<text transform="matrix(1 0 0 1 655.8882 113.2338)" class="st6 st9 st11">FRAMEWORK</text>
				<text transform="matrix(1 0 0 1 240.3882 89.2338)" class="st6 st9 st11">STRUMENTI PER LA GENERAZIONE</text>
				<text transform="matrix(1 0 0 1 572.6041 89.2338)" class="st6 st9 st11"> </text>
				<text transform="matrix(1 0 0 1 240.3882 113.2338)" class="st6 st9 st11">E DIFFUSIONE DEI SERVIZI DIGITALI</text>
				<path id="Line-2-Copy-15" class="st12" d="M215.6,16v1066"/>
				<path id="Line-2-Copy-16" class="st12" d="M630.6,16v1066"/>
				<polygon id="Rectangle-14" class="st13" points="16.4,152.2 177.9,152.2 199.4,174.7 199.4,225.2 16.4,225.2 				"/>
				<polygon id="Rectangle-14-Copy" class="st13" points="16.4,241.2 177.9,241.2 199.4,263.7 199.4,314.2 16.4,314.2 				"/>
				<polygon id="Rectangle-17" class="st14" points="177.4,152.2 199.4,174.2 177.4,174.2 				"/>
				<polygon id="Rectangle-17-Copy" class="st14" points="177.4,241.2 199.4,263.2 177.4,263.2 				"/>
				<text transform="matrix(1 0 0 1 33.8882 185.2338)" class="st1 st2 st15">Regolazione e</text>
				<text transform="matrix(1 0 0 1 127.5667 185.2338)" class="st1 st2 st15"> </text>
				<text transform="matrix(1 0 0 1 33.8882 205.2338)" class="st1 st2 st15">regolamentazione</text>
				<g id="Group-47" transform="translate(639.500000, 136.110822)">
					<polygon id="Rectangle-14-Copy-4" class="st13" points="16.9,16.1 178.4,16.1 199.9,38.6 199.9,89.1 16.9,89.1 					"/>
					<polygon id="Rectangle-17-Copy-4" class="st14" points="177.9,16.1 199.9,38.1 177.9,38.1 					"/>
					<text transform="matrix(1 0 0 1 34.3882 49.123)" class="st1 st2 st15">Piattaforma</text>
					<text transform="matrix(1 0 0 1 115.1714 49.123)" class="st1 st2 st15"> </text>
					<text transform="matrix(1 0 0 1 34.3882 69.123)" class="st1 st2 st15">Big Data</text>
				</g>
				<g id="Group-47-Copy" transform="translate(639.500000, 483.351675)">
					<polygon id="Rectangle-14-Copy-4_1_" class="st13" points="16.9,16.1 178.4,16.1 199.9,38.6 199.9,89.1 16.9,89.1 					"/>
					<polygon id="Rectangle-17-Copy-4_1_" class="st14" points="177.9,16.1 199.9,38.1 177.9,38.1 					"/>
					<text transform="matrix(1 0 0 1 34.3882 49.123)" class="st1 st2 st15">Big Data team</text>
					<text transform="matrix(1 0 0 1 130.0667 49.123)" class="st1 st2 st15"> </text>
					<text transform="matrix(1 0 0 1 34.3882 69.1229)" class="st1 st2 st15">della PA (BDT PA)</text>
				</g>
				<text transform="matrix(1 0 0 1 33.8882 274.2338)" class="st1 st2 st15">Accreditamento</text>
				<text transform="matrix(1 0 0 1 140.303 274.2338)" class="st1 st2 st15"> </text>
				<text transform="matrix(1 0 0 1 33.8882 294.2338)" class="st1 st2 st15">e Vigilanza</text>
				<g id="Group-49" transform="translate(0.000000, 483.351675)">
					<polygon id="Rectangle-14-Copy-2" class="st13" points="16.4,15.9 177.9,15.9 199.4,38.4 199.4,88.9 16.4,88.9 					"/>
					<polygon id="Rectangle-14-Copy-3" class="st13" points="16.4,104.9 177.9,104.9 199.4,127.4 199.4,177.9 16.4,177.9 					"/>
					<polygon id="Rectangle-17-Copy-2" class="st14" points="177.4,15.9 199.4,37.9 177.4,37.9 					"/>
					<polygon id="Rectangle-17-Copy-3" class="st14" points="177.4,104.9 199.4,126.9 177.4,126.9 					"/>
					<text transform="matrix(1 0 0 1 33.8882 48.8821)" class="st1 st2 st15">Assesment </text>
					<text transform="matrix(1 0 0 1 33.8882 68.8821)" class="st1 st2 st15">test</text>
					<text transform="matrix(1 0 0 1 33.8882 137.8821)" class="st1 st2 st15">CERT-PA</text>
				</g>
				<path id="Page-1" class="st16" d="M30.4,16c-2.8,0-5.1,1-7.1,3c-2,2-2.9,4.4-2.9,7.2V28h-2c-0.5,0-1,0.2-1.4,0.6
					c-0.4,0.4-0.6,0.9-0.6,1.4v16c0,0.5,0.2,1,0.6,1.4c0.4,0.4,0.9,0.6,1.4,0.6h24c0.5,0,1-0.2,1.4-0.6c0.4-0.4,0.6-0.9,0.6-1.4V30
					c0-0.5-0.2-1-0.6-1.4c-0.4-0.4-0.9-0.6-1.4-0.6h-2v-1.9c0-2.8-1-5.2-2.9-7.2C35.5,17,33.1,16,30.4,16z M22.4,26.1
					c0-2.2,0.8-4.1,2.3-5.7c1.6-1.6,3.4-2.4,5.7-2.4s4.1,0.8,5.7,2.4c1.6,1.6,2.3,3.5,2.3,5.7V28h-16V26.1z M42.4,46h-24V30h24V46z
					 M34.4,38c0-1.1-0.4-2.1-1.2-2.8c-0.8-0.8-1.7-1.2-2.8-1.2s-2.1,0.4-2.8,1.2c-0.8,0.8-1.2,1.7-1.2,2.8s0.4,2.1,1.2,2.8
					c0.8,0.8,1.7,1.2,2.8,1.2s2.1-0.4,2.8-1.2C34,40.1,34.4,39.1,34.4,38z M30.4,40c-0.5,0-1-0.2-1.4-0.6c-0.4-0.4-0.6-0.9-0.6-1.4
					s0.2-1,0.6-1.4c0.4-0.4,0.9-0.6,1.4-0.6s1,0.2,1.4,0.6c0.4,0.4,0.6,0.9,0.6,1.4s-0.2,1-0.6,1.4C31.4,39.8,30.9,40,30.4,40z"/>
				<path id="Page-1_1_" class="st16" d="M677.9,36c0.3,0,0.5-0.1,0.7-0.3s0.3-0.4,0.3-0.7v-9c0-0.3-0.1-0.5-0.3-0.7
					c-0.2-0.2-0.4-0.3-0.7-0.3s-0.5,0.1-0.7,0.3c-0.2,0.2-0.3,0.4-0.3,0.7v9c0,0.3,0.1,0.5,0.3,0.7S677.6,36,677.9,36z M671.9,36
					c0.3,0,0.5-0.1,0.7-0.3s0.3-0.4,0.3-0.7V23c0-0.3-0.1-0.5-0.3-0.7c-0.2-0.2-0.4-0.3-0.7-0.3s-0.5,0.1-0.7,0.3
					c-0.2,0.2-0.3,0.4-0.3,0.7v12c0,0.3,0.1,0.5,0.3,0.7S671.6,36,671.9,36z M665.9,36c0.3,0,0.5-0.1,0.7-0.3s0.3-0.4,0.3-0.7v-4
					c0-0.3-0.1-0.5-0.3-0.7c-0.2-0.2-0.4-0.3-0.7-0.3s-0.5,0.1-0.7,0.3c-0.2,0.2-0.3,0.4-0.3,0.7v4c0,0.3,0.1,0.5,0.3,0.7
					S665.6,36,665.9,36z M655.9,16v2h2c0,0.4,0,1.6,0,3.6s0,4.2,0,6.5c0,2.3,0,4.3,0,6.2s0,2.7,0,2.7c0,1.2,0.4,2.2,1.1,2.9
					c0.7,0.7,1.7,1.1,2.9,1.1h6l-4,7h3l4-7h2l4,7h3l-4-7h6c1.2,0,2.2-0.4,2.9-1.1c0.7-0.7,1.1-1.7,1.1-2.9c0,0,0-0.9,0-2.7
					c0-1.8,0-3.9,0-6.1c0-2.3,0-4.4,0-6.5s0-3.3,0-3.7h2v-2H655.9z M683.9,37c0,0.6-0.2,1.1-0.5,1.5s-0.8,0.5-1.5,0.5h-20
					c-0.6,0-1.1-0.2-1.5-0.5s-0.5-0.8-0.5-1.5c0,0,0-0.9,0-2.8c0-1.9,0-3.9,0-6.2c0-2.3,0-4.4,0-6.5s0-3.2,0-3.5h24
					c0,0.5,0,1.8,0,3.8s0,4.2,0,6.4s0,4.3,0,6.1S683.9,37,683.9,37z"/>
				<path id="Page-1_2_" class="st16" d="M271.4,21.8c-0.3,0.3-0.6,0.7-1.1,1.1c-0.5,0.4-1,0.9-1.6,1.5c-0.7,0.7-1.4,1-2.3,1
					s-1.6-0.3-2.3-1c-0.7-0.7-1-1.5-1-2.3c0-0.9,0.3-1.6,1-2.3c0.6-0.6,1.2-1.2,1.8-1.8c0.6-0.6,0.8-0.9,0.8-0.9
					c-0.9-0.4-1.9-0.7-2.8-0.8c-1-0.1-2-0.1-2.9,0c-1,0.2-1.9,0.5-2.8,0.9c-0.9,0.5-1.7,1.1-2.5,1.8c-0.7,0.7-1.2,1.4-1.7,2.2
					c-0.4,0.8-0.8,1.7-1,2.5c-0.2,0.9-0.3,1.8-0.2,2.7c0,0.9,0.2,1.8,0.5,2.6l-11.5,11.5c-0.8,0.8-1.3,1.9-1.3,3.1
					c0,1.2,0.4,2.2,1.3,3.1c0.9,0.9,1.9,1.3,3.1,1.3c1.2,0,2.2-0.4,3.1-1.3l11.5-11.5c0.9,0.3,1.7,0.5,2.6,0.5s1.8,0,2.7-0.2
					c0.9-0.2,1.7-0.5,2.5-0.9c0.8-0.4,1.6-1,2.3-1.7c0.7-0.8,1.3-1.6,1.8-2.5c0.5-0.9,0.8-1.8,0.9-2.8c0.2-1,0.2-1.9,0-2.9
					S271.8,22.7,271.4,21.8z M267.9,31.3c-1.2,1.2-2.7,1.9-4.3,2.1c-1.7,0.2-3.2-0.1-4.7-0.9l-12.6,12.6c-0.4,0.4-1,0.6-1.6,0.6
					c-0.6,0-1.1-0.2-1.5-0.6c-0.4-0.4-0.7-0.9-0.7-1.5c0-0.6,0.2-1.1,0.7-1.5l12.6-12.5c-0.8-1.5-1.1-3-0.8-4.7
					c0.2-1.7,0.9-3.1,2.1-4.3c0.7-0.7,1.6-1.3,2.5-1.6c0.9-0.4,1.9-0.5,2.8-0.6c-1,1.1-1.5,2.4-1.5,3.8c0,1.5,0.5,2.7,1.6,3.8
					c1,1,2.3,1.6,3.8,1.6c1.5,0,2.7-0.5,3.8-1.5c0,1-0.2,1.9-0.6,2.8C269.1,29.7,268.6,30.6,267.9,31.3z"/>
				<g id="Group-46" transform="translate(223.000000, 359.351675)">
					<g id="Group-45_10_">
						<g transform="translate(90.000000, 16.000000) rotate(-360.000000) translate(-90.000000, -16.000000) ">
							<path id="Rectangle-11-Copy_10_" class="st0" d="M20.4,15.9h172c2.2,0,4,1.8,4,4v24c0,2.2-1.8,4-4,4h-172c-2.2,0-4-1.8-4-4
								v-24C16.4,17.7,18.2,15.9,20.4,15.9z"/>
							<text transform="matrix(1 0 0 1 23.8882 38.8821)" class="st1 st2 st3">Sviluppo e sostenibilità</text>
						</g>
					</g>
					<g id="Group-45_11_" transform="translate(188.000000, 0.000000)">
						<g transform="translate(48.000000, 16.000000) rotate(-360.000000) translate(-48.000000, -16.000000) ">
							<path id="Rectangle-11-Copy_11_" class="st0" d="M20.4,15.9h88c2.2,0,4,1.8,4,4v24c0,2.2-1.8,4-4,4h-88c-2.2,0-4-1.8-4-4v-24
								C16.4,17.7,18.2,15.9,20.4,15.9z"/>
							<text transform="matrix(1 0 0 1 24.8882 38.8821)" class="st1 st2 st3">Agricoltura</text>
						</g>
					</g>
				</g>
				<g id="Group-45_12_" transform="translate(223.000000, 239.351675)">
					<g transform="translate(90.000000, 16.000000) rotate(-360.000000) translate(-90.000000, -16.000000) ">
						<path id="Rectangle-11-Copy_12_" class="st0" d="M20.4,15.9h172c2.2,0,4,1.8,4,4v24c0,2.2-1.8,4-4,4h-172c-2.2,0-4-1.8-4-4
							v-24C16.4,17.7,18.2,15.9,20.4,15.9z"/>
						<text transform="matrix(1 0 0 1 23.3882 38.8821)" class="st1 st2 st3">Beni culturali e turismo</text>
					</g>
				</g>
				<g id="Group-45_13_" transform="translate(483.000000, 239.351675)">
					<g transform="translate(40.500000, 16.000000) rotate(-360.000000) translate(-40.500000, -16.000000) ">
						<path id="Rectangle-11-Copy_13_" class="st0" d="M20.4,15.9h73c2.2,0,4,1.8,4,4v24c0,2.2-1.8,4-4,4h-73c-2.2,0-4-1.8-4-4v-24
							C16.4,17.7,18.2,15.9,20.4,15.9z"/>
						<text transform="matrix(1 0 0 1 25.8882 38.8821)" class="st1 st2 st3">Giustizia</text>
					</g>
				</g>
				<g id="Group-45_14_" transform="translate(411.000000, 239.351675)">
					
						<g transform="translate(32.000000, 16.000000) rotate(-360.000000) translate(-32.000000, -16.000000) translate(0.000000, 0.000000)">
						<path id="Rectangle-11-Copy_14_" class="st0" d="M20.4,15.9h56c2.2,0,4,1.8,4,4v24c0,2.2-1.8,4-4,4h-56c-2.2,0-4-1.8-4-4v-24
							C16.4,17.7,18.2,15.9,20.4,15.9z"/>
						<text transform="matrix(1 0 0 1 23.8882 38.8821)" class="st1 st2 st3">Scuola</text>
					</g>
				</g>
				<g id="Group-45_15_" transform="translate(296.000000, 159.351675)">
					
						<g transform="translate(37.500000, 16.000000) rotate(-360.000000) translate(-37.500000, -16.000000) translate(0.000000, 0.000000)">
						<path id="Rectangle-11-Copy_15_" class="st0" d="M20.4,15.9h67c2.2,0,4,1.8,4,4v24c0,2.2-1.8,4-4,4h-67c-2.2,0-4-1.8-4-4v-24
							C16.4,17.7,18.2,15.9,20.4,15.9z"/>
						<text transform="matrix(1 0 0 1 25.3882 38.8821)" class="st1 st2 st3">Welfare</text>
					</g>
				</g>
				<g id="Group-45_16_" transform="translate(223.750000, 159.351675)">
					
						<g transform="translate(32.000000, 16.000000) rotate(-360.000000) translate(-32.000000, -16.000000) translate(0.000000, 0.000000)">
						<path id="Rectangle-11-Copy_16_" class="st0" d="M20.4,15.9h56c2.2,0,4,1.8,4,4v24c0,2.2-1.8,4-4,4h-56c-2.2,0-4-1.8-4-4v-24
							C16.4,17.7,18.2,15.9,20.4,15.9z"/>
						<text transform="matrix(1 0 0 1 24.8882 38.8821)" class="st1 st2 st3">Sanità</text>
					</g>
				</g>
				<g id="Group-45_17_" transform="translate(379.000000, 159.351675)">
					<g transform="translate(68.500000, 16.000000) rotate(-360.000000) translate(-68.500000, -16.000000) ">
						<path id="Rectangle-11-Copy_17_" class="st0" d="M20.4,15.9h129c2.2,0,4,1.8,4,4v24c0,2.2-1.8,4-4,4h-129c-2.2,0-4-1.8-4-4
							v-24C16.4,17.7,18.2,15.9,20.4,15.9z"/>
						<text transform="matrix(1 0 0 1 24.8882 38.8821)" class="st1 st2 st3">Finanza pubblica</text>
					</g>
				</g>
				<text transform="matrix(1 0 0 1 240.1382 622.9929)" class="st6 st2 st7">INFRASTRUTTURE IMMATERIALI</text>
				<g id="Group-45_18_" transform="translate(269.000000, 710.110822)">
					<g transform="translate(48.000000, 16.000000) rotate(-360.000000) translate(-48.000000, -16.000000) ">
						<path id="Rectangle-11-Copy_18_" class="st0" d="M20.4,15.9h88c2.2,0,4,1.8,4,4v24c0,2.2-1.8,4-4,4h-88c-2.2,0-4-1.8-4-4v-24
							C16.4,17.7,18.2,15.9,20.4,15.9z"/>
						<text transform="matrix(1 0 0 1 27.8882 38.8821)" class="st1 st2 st3">FatturaPA</text>
					</g>
				</g>
				<g id="Group-45_19_" transform="translate(373.000000, 710.110822)">
					
						<g transform="translate(33.000000, 16.000000) rotate(-360.000000) translate(-33.000000, -16.000000) translate(0.000000, 0.000000)">
						<path id="Rectangle-11-Copy_19_" class="st0" d="M20.4,15.9h58c2.2,0,4,1.8,4,4v24c0,2.2-1.8,4-4,4h-58c-2.2,0-4-1.8-4-4v-24
							C16.4,17.7,18.2,15.9,20.4,15.9z"/>
						<text transform="matrix(1 0 0 1 27.3882 38.8821)" class="st1 st2 st3">ANPR</text>
					</g>
				</g>
				<g id="Group-45_20_" transform="translate(447.250000, 710.110822)">
					
						<g transform="translate(32.000000, 16.000000) rotate(-360.000000) translate(-32.000000, -16.000000) translate(0.000000, 0.000000)">
						<path id="Rectangle-11-Copy_20_" class="st0" d="M20.4,15.9h56c2.2,0,4,1.8,4,4v24c0,2.2-1.8,4-4,4h-56c-2.2,0-4-1.8-4-4v-24
							C16.4,17.7,18.2,15.9,20.4,15.9z"/>
						<text transform="matrix(1 0 0 1 23.8882 38.8821)" class="st1 st2 st3">Scuola</text>
					</g>
				</g>
				<g id="Group-45_21_" transform="translate(321.250000, 670.110822)">
					
						<g transform="translate(27.500000, 16.000000) rotate(-360.000000) translate(-27.500000, -16.000000) translate(0.000000, 0.000000)">
						<path id="Rectangle-11-Copy_21_" class="st0" d="M20.4,15.9h47c2.2,0,4,1.8,4,4v24c0,2.2-1.8,4-4,4h-47c-2.2,0-4-1.8-4-4v-24
							C16.4,17.7,18.2,15.9,20.4,15.9z"/>
						<text transform="matrix(1 0 0 1 25.8882 38.8821)" class="st1 st2 st3">SPID</text>
					</g>
				</g>
				<g id="Group-45_22_" transform="translate(269.000000, 670.110822)">
					
						<g transform="translate(22.000000, 16.000000) rotate(-360.000000) translate(-22.000000, -16.000000) translate(0.000000, 0.000000)">
						<path id="Rectangle-11-Copy_22_" class="st0" d="M20.4,15.9h36c2.2,0,4,1.8,4,4v24c0,2.2-1.8,4-4,4h-36c-2.2,0-4-1.8-4-4v-24
							C16.4,17.7,18.2,15.9,20.4,15.9z"/>
						<text transform="matrix(1 0 0 1 26.3882 38.8821)" class="st1 st2 st3">CIE</text>
					</g>
				</g>
				<g id="Group-45_23_" transform="translate(269.000000, 797.110822)">
					<g transform="translate(132.000000, 16.000000) rotate(-360.000000) translate(-132.000000, -16.000000) ">
						<path id="Rectangle-11-Copy_23_" class="st0" d="M20.4,15.9h256c2.2,0,4,1.8,4,4v24c0,2.2-1.8,4-4,4h-256c-2.2,0-4-1.8-4-4
							v-24C16.4,17.7,18.2,15.9,20.4,15.9z"/>
						<text transform="matrix(1 0 0 1 26.3882 38.8821)" class="st1 st2 st3">Banche dati di interesse nazionale</text>
					</g>
				</g>
				<g id="Group-45_24_" transform="translate(384.250000, 670.110822)">
					<g transform="translate(42.000000, 16.000000) rotate(-360.000000) translate(-42.000000, -16.000000) ">
						<path id="Rectangle-11-Copy_24_" class="st0" d="M20.4,15.9h76c2.2,0,4,1.8,4,4v24c0,2.2-1.8,4-4,4h-76c-2.2,0-4-1.8-4-4v-24
							C16.4,17.7,18.2,15.9,20.4,15.9z"/>
						<text transform="matrix(1 0 0 1 29.8882 38.8821)" class="st1 st2 st3">PagoPA</text>
					</g>
				</g>
				<g id="Rectangle-18">
					<g>
						<path id="path-1" class="st17" d="M243.7,499.2h361c2.2,0,4,1.8,4,4v55c0,2.2-1.8,4-4,4h-361c-2.2,0-4-1.8-4-4v-55
							C239.7,501,241.5,499.2,243.7,499.2z"/>
					</g>
					<path class="st18" d="M244.7,500.2h359c2.2,0,4,1.8,4,4v53c0,2.2-1.8,4-4,4h-359c-2.2,0-4-1.8-4-4v-53
						C240.7,502,242.5,500.2,244.7,500.2z"/>
				</g>
				<text transform="matrix(1 0 0 1 298.6636 537.7338)" class="st16 st2 st7">MODELLO DI INTEROPERABILITÀ</text>
			</g>
		</g>
	</g>
</g>
</svg>
